<svg width="956" height="637" viewBox="0 0 956 637" fill="none" xmlns="http://www.w3.org/2000/svg">
<mask id="path-1-inside-1_58_186" fill="white">
<path fill-rule="evenodd" clip-rule="evenodd" d="M854.384 272.297C854.74 268.189 854.921 264.03 854.921 259.83C854.921 181.136 791.128 117.343 712.435 117.343C695.178 117.343 678.637 120.41 663.329 126.03C641.789 53.1671 574.361 0 494.514 0C416.768 0 350.795 50.4066 327.493 120.321C307.959 107.824 284.74 100.579 259.829 100.579C190.394 100.579 134.105 156.867 134.105 226.302C134.105 234.923 134.973 243.34 136.626 251.472C135.787 251.457 134.947 251.449 134.105 251.449C60.041 251.449 0 311.49 0 385.554C0 459.619 60.041 519.66 134.105 519.66C142.536 519.66 150.784 518.882 158.783 517.394C189.481 568.941 245.767 603.476 310.119 603.476C353.963 603.476 394.063 587.445 424.878 560.925C460.093 607.16 515.727 637.002 578.331 637.002C658.139 637.002 726.621 588.505 755.912 519.373C775.279 530.23 797.614 536.421 821.396 536.421C895.461 536.421 955.502 476.379 955.502 402.315C955.502 339.633 912.497 286.996 854.384 272.297Z"/>
</mask>
<path fill-rule="evenodd" clip-rule="evenodd" d="M854.384 272.297C854.74 268.189 854.921 264.03 854.921 259.83C854.921 181.136 791.128 117.343 712.435 117.343C695.178 117.343 678.637 120.41 663.329 126.03C641.789 53.1671 574.361 0 494.514 0C416.768 0 350.795 50.4066 327.493 120.321C307.959 107.824 284.74 100.579 259.829 100.579C190.394 100.579 134.105 156.867 134.105 226.302C134.105 234.923 134.973 243.34 136.626 251.472C135.787 251.457 134.947 251.449 134.105 251.449C60.041 251.449 0 311.49 0 385.554C0 459.619 60.041 519.66 134.105 519.66C142.536 519.66 150.784 518.882 158.783 517.394C189.481 568.941 245.767 603.476 310.119 603.476C353.963 603.476 394.063 587.445 424.878 560.925C460.093 607.16 515.727 637.002 578.331 637.002C658.139 637.002 726.621 588.505 755.912 519.373C775.279 530.23 797.614 536.421 821.396 536.421C895.461 536.421 955.502 476.379 955.502 402.315C955.502 339.633 912.497 286.996 854.384 272.297Z" fill="#ECECEC"/>
<path d="M854.384 272.297L837.683 270.849L836.452 285.053L850.273 288.549L854.384 272.297ZM663.329 126.03L647.254 130.783L652.322 147.928L669.106 141.767L663.329 126.03ZM327.493 120.321L318.459 134.442L336.591 146.042L343.396 125.622L327.493 120.321ZM136.626 251.472L136.317 268.233L157.215 268.618L153.053 248.134L136.626 251.472ZM158.783 517.394L173.186 508.817L167.206 498.776L155.718 500.913L158.783 517.394ZM424.878 560.925L438.213 550.768L427.431 536.611L413.943 548.219L424.878 560.925ZM755.912 519.373L764.109 504.751L747.78 495.596L740.477 512.833L755.912 519.373ZM871.084 273.745C871.482 269.156 871.685 264.514 871.685 259.83H838.158C838.158 263.547 837.997 267.222 837.683 270.849L871.084 273.745ZM871.685 259.83C871.685 171.878 800.386 100.58 712.435 100.58V134.106C781.87 134.106 838.158 190.394 838.158 259.83H871.685ZM712.435 100.58C693.178 100.58 674.683 104.005 657.552 110.294L669.106 141.767C682.591 136.816 697.178 134.106 712.435 134.106V100.58ZM679.405 121.278C655.817 41.4869 581.99 -16.7632 494.514 -16.7632V16.7632C566.731 16.7632 627.762 64.8473 647.254 130.783L679.405 121.278ZM494.514 -16.7632C409.338 -16.7632 337.105 38.4666 311.59 115.021L343.396 125.622C364.485 62.3466 424.198 16.7632 494.514 16.7632V-16.7632ZM336.527 106.201C314.376 92.0291 288.036 83.8155 259.829 83.8155V117.342C281.444 117.342 301.541 123.618 318.459 134.442L336.527 106.201ZM259.829 83.8155C181.136 83.8155 117.342 147.609 117.342 226.302H150.869C150.869 166.125 199.652 117.342 259.829 117.342V83.8155ZM117.342 226.302C117.342 236.05 118.324 245.586 120.198 254.81L153.053 248.134C151.622 241.094 150.869 233.795 150.869 226.302H117.342ZM136.934 234.712C135.993 234.695 135.05 234.686 134.105 234.686V268.212C134.844 268.212 135.581 268.219 136.317 268.233L136.934 234.712ZM134.105 234.686C50.783 234.686 -16.7632 302.232 -16.7632 385.554H16.7632C16.7632 320.748 69.2991 268.212 134.105 268.212V234.686ZM-16.7632 385.554C-16.7632 468.877 50.783 536.423 134.105 536.423V502.897C69.2991 502.897 16.7632 450.361 16.7632 385.554H-16.7632ZM134.105 536.423C143.569 536.423 152.843 535.549 161.848 533.875L155.718 500.913C148.725 502.214 141.502 502.897 134.105 502.897V536.423ZM144.38 525.971C177.976 582.384 239.618 620.239 310.119 620.239V586.712C251.916 586.712 200.986 555.498 173.186 508.817L144.38 525.971ZM310.119 620.239C358.126 620.239 402.072 602.669 435.812 573.63L413.943 548.219C386.055 572.221 349.8 586.712 310.119 586.712V620.239ZM411.542 571.082C449.791 621.3 510.273 653.765 578.331 653.765V620.239C521.181 620.239 470.394 593.019 438.213 550.768L411.542 571.082ZM578.331 653.765C665.106 653.765 739.523 601.022 771.347 525.912L740.477 512.833C713.719 575.987 651.173 620.239 578.331 620.239V653.765ZM821.396 519.657C800.559 519.657 781.037 514.241 764.109 504.751L747.714 533.995C769.52 546.22 794.67 553.184 821.396 553.184V519.657ZM938.739 402.315C938.739 467.121 886.203 519.657 821.396 519.657V553.184C904.719 553.184 972.265 485.638 972.265 402.315H938.739ZM850.273 288.549C901.125 301.411 938.739 347.491 938.739 402.315H972.265C972.265 331.775 923.869 272.581 858.494 256.046L850.273 288.549Z" fill="url(#paint0_linear_58_186)" mask="url(#path-1-inside-1_58_186)"/>
<path d="M376.166 450.02C348.898 453.149 327.218 453.708 311.125 451.696C295.032 449.461 282.739 444.656 274.246 437.28C267.094 430.798 262.177 422.975 259.494 413.812C256.812 404.424 255.471 392.466 255.471 377.938V355.811H140.811C137.906 355.811 135.335 354.805 133.1 352.794C131.089 350.782 130.083 348.323 130.083 345.418C130.083 342.289 131.089 339.718 133.1 337.707C135.335 335.695 137.906 334.689 140.811 334.689H255.471V276.354H190.095C187.189 276.354 184.619 275.348 182.384 273.336C180.372 271.101 179.366 268.531 179.366 265.625C179.366 262.719 180.372 260.261 182.384 258.249C184.619 256.238 187.189 255.232 190.095 255.232H334.929C338.058 255.232 340.628 256.238 342.64 258.249C344.651 260.261 345.657 262.719 345.657 265.625C345.657 268.531 344.651 271.101 342.64 273.336C340.628 275.348 338.058 276.354 334.929 276.354H277.263V334.689H383.877C386.783 334.689 389.241 335.695 391.253 337.707C393.265 339.718 394.27 342.289 394.27 345.418C394.27 348.323 393.265 350.782 391.253 352.794C389.241 354.805 386.783 355.811 383.877 355.811H277.263V377.938C277.263 389.784 278.046 398.948 279.61 405.43C281.398 411.688 284.527 416.829 288.998 420.852C295.032 425.993 304.755 429.345 318.166 430.91C331.8 432.251 350.351 431.469 373.819 428.563C376.948 428.116 379.631 428.898 381.866 430.91C384.324 432.698 385.665 435.045 385.889 437.95C386.336 440.856 385.553 443.538 383.542 445.997C381.754 448.232 379.295 449.573 376.166 450.02Z" fill="url(#paint1_linear_58_186)"/>
<mask id="path-4-outside-2_58_186" maskUnits="userSpaceOnUse" x="358.264" y="217.581" width="240" height="242" fill="black">
<rect fill="white" x="358.264" y="217.581" width="240" height="242"/>
<path d="M496.693 458.124C494.078 458.728 491.664 458.225 489.452 456.616C487.239 455.208 485.931 453.196 485.529 450.581C483.719 440.121 481.104 427.146 477.684 411.657C474.264 395.967 470.543 379.17 466.52 361.267C462.496 343.364 458.373 325.762 454.148 308.463C438.659 311.078 423.472 313.693 408.586 316.308C393.901 318.923 381.128 321.136 370.265 322.946C367.65 323.349 365.236 322.745 363.024 321.136C361.012 319.527 359.805 317.414 359.403 314.799C359.202 312.184 359.805 309.871 361.213 307.859C362.823 305.647 364.935 304.339 367.55 303.937C378.613 302.328 391.286 300.417 405.569 298.204C420.052 295.79 434.837 293.275 449.924 290.66C446.907 278.792 444.09 267.829 441.475 257.771C438.86 247.512 436.446 238.661 434.234 231.218C433.429 228.603 433.63 226.189 434.837 223.977C436.245 221.563 438.257 219.953 440.872 219.149C443.487 218.344 445.901 218.646 448.114 220.054C450.527 221.261 452.036 223.172 452.64 225.787C457.065 241.88 462.195 262.398 468.028 287.341C481.506 285.129 494.38 282.916 506.651 280.703C518.921 278.49 529.683 276.479 538.936 274.668C556.84 271.249 570.217 271.752 579.067 276.177C587.918 280.602 593.651 288.649 596.266 300.316C599.485 313.794 595.965 326.668 585.706 338.938C575.648 351.209 557.443 362.072 531.091 371.526C528.476 372.331 525.962 372.23 523.548 371.224C521.335 370.017 519.726 368.207 518.72 365.793C517.915 363.178 518.016 360.663 519.022 358.25C520.229 355.836 522.14 354.226 524.755 353.422C541.25 348.192 553.319 342.66 560.963 336.826C568.808 330.791 573.737 324.958 575.748 319.325C577.76 313.693 578.162 308.765 576.955 304.54C575.547 298.707 572.53 294.784 567.903 292.773C563.277 290.761 554.828 290.761 542.557 292.773C534.31 294.181 523.95 295.991 511.478 298.204C499.208 300.417 486.233 302.73 472.554 305.144C476.577 322.242 480.601 339.642 484.624 357.344C488.647 375.046 492.368 391.742 495.788 407.433C499.409 422.922 502.326 436.098 504.538 446.96C504.941 449.575 504.438 451.989 503.03 454.202C501.622 456.415 499.509 457.722 496.693 458.124Z"/>
</mask>
<path d="M496.693 458.124C494.078 458.728 491.664 458.225 489.452 456.616C487.239 455.208 485.931 453.196 485.529 450.581C483.719 440.121 481.104 427.146 477.684 411.657C474.264 395.967 470.543 379.17 466.52 361.267C462.496 343.364 458.373 325.762 454.148 308.463C438.659 311.078 423.472 313.693 408.586 316.308C393.901 318.923 381.128 321.136 370.265 322.946C367.65 323.349 365.236 322.745 363.024 321.136C361.012 319.527 359.805 317.414 359.403 314.799C359.202 312.184 359.805 309.871 361.213 307.859C362.823 305.647 364.935 304.339 367.55 303.937C378.613 302.328 391.286 300.417 405.569 298.204C420.052 295.79 434.837 293.275 449.924 290.66C446.907 278.792 444.09 267.829 441.475 257.771C438.86 247.512 436.446 238.661 434.234 231.218C433.429 228.603 433.63 226.189 434.837 223.977C436.245 221.563 438.257 219.953 440.872 219.149C443.487 218.344 445.901 218.646 448.114 220.054C450.527 221.261 452.036 223.172 452.64 225.787C457.065 241.88 462.195 262.398 468.028 287.341C481.506 285.129 494.38 282.916 506.651 280.703C518.921 278.49 529.683 276.479 538.936 274.668C556.84 271.249 570.217 271.752 579.067 276.177C587.918 280.602 593.651 288.649 596.266 300.316C599.485 313.794 595.965 326.668 585.706 338.938C575.648 351.209 557.443 362.072 531.091 371.526C528.476 372.331 525.962 372.23 523.548 371.224C521.335 370.017 519.726 368.207 518.72 365.793C517.915 363.178 518.016 360.663 519.022 358.25C520.229 355.836 522.14 354.226 524.755 353.422C541.25 348.192 553.319 342.66 560.963 336.826C568.808 330.791 573.737 324.958 575.748 319.325C577.76 313.693 578.162 308.765 576.955 304.54C575.547 298.707 572.53 294.784 567.903 292.773C563.277 290.761 554.828 290.761 542.557 292.773C534.31 294.181 523.95 295.991 511.478 298.204C499.208 300.417 486.233 302.73 472.554 305.144C476.577 322.242 480.601 339.642 484.624 357.344C488.647 375.046 492.368 391.742 495.788 407.433C499.409 422.922 502.326 436.098 504.538 446.96C504.941 449.575 504.438 451.989 503.03 454.202C501.622 456.415 499.509 457.722 496.693 458.124Z" fill="url(#paint2_linear_58_186)"/>
<path d="M496.693 458.124L496.575 457.295L496.539 457.3L496.505 457.308L496.693 458.124ZM489.452 456.616L489.945 455.938L489.924 455.923L489.902 455.909L489.452 456.616ZM485.529 450.581L486.357 450.454L486.356 450.446L486.355 450.438L485.529 450.581ZM477.684 411.657L476.865 411.835L476.865 411.838L477.684 411.657ZM466.52 361.267L467.337 361.083L466.52 361.267ZM454.148 308.463L454.963 308.264L454.778 307.507L454.009 307.636L454.148 308.463ZM408.586 316.308L408.441 315.483L408.439 315.483L408.586 316.308ZM370.265 322.946L370.393 323.775L370.403 323.773L370.265 322.946ZM363.024 321.136L362.5 321.79L362.515 321.802L362.531 321.814L363.024 321.136ZM359.403 314.799L358.567 314.864L358.57 314.895L358.574 314.927L359.403 314.799ZM361.213 307.859L360.535 307.366L360.531 307.373L360.527 307.379L361.213 307.859ZM367.55 303.937L367.429 303.107L367.422 303.108L367.55 303.937ZM405.569 298.204L405.697 299.032L405.706 299.031L405.569 298.204ZM449.924 290.66L450.067 291.486L450.959 291.332L450.736 290.454L449.924 290.66ZM441.475 257.771L440.663 257.978L440.664 257.982L441.475 257.771ZM434.234 231.218L435.037 230.979L435.035 230.972L434.234 231.218ZM434.837 223.977L434.113 223.554L434.107 223.565L434.101 223.575L434.837 223.977ZM440.872 219.149L441.118 219.95L440.872 219.149ZM448.114 220.054L447.664 220.761L447.7 220.784L447.739 220.804L448.114 220.054ZM452.64 225.787L451.823 225.975L451.827 225.992L451.831 226.009L452.64 225.787ZM468.028 287.341L467.212 287.532L467.391 288.295L468.164 288.168L468.028 287.341ZM538.936 274.668L538.779 273.845L538.775 273.846L538.936 274.668ZM579.067 276.177L578.693 276.927L579.067 276.177ZM596.266 300.316L595.449 300.499L595.451 300.511L596.266 300.316ZM585.706 338.938L585.063 338.401L585.057 338.407L585.706 338.938ZM531.091 371.526L531.338 372.327L531.356 372.321L531.374 372.315L531.091 371.526ZM523.548 371.224L523.146 371.96L523.185 371.981L523.225 371.998L523.548 371.224ZM518.72 365.793L517.919 366.039L517.931 366.078L517.946 366.115L518.72 365.793ZM519.022 358.25L518.272 357.875L518.259 357.9L518.248 357.927L519.022 358.25ZM524.755 353.422L525.001 354.223L525.008 354.221L524.755 353.422ZM560.963 336.826L561.472 337.492L561.474 337.491L560.963 336.826ZM575.748 319.325L574.959 319.044L575.748 319.325ZM576.955 304.54L576.141 304.737L576.145 304.754L576.149 304.771L576.955 304.54ZM567.903 292.773L567.569 293.541V293.541L567.903 292.773ZM542.557 292.773L542.422 291.945L542.416 291.946L542.557 292.773ZM511.478 298.204L511.332 297.379L511.33 297.379L511.478 298.204ZM472.554 305.144L472.409 304.318L471.535 304.473L471.738 305.336L472.554 305.144ZM484.624 357.344L483.806 357.53L484.624 357.344ZM495.788 407.433L494.969 407.611L494.972 407.623L495.788 407.433ZM504.538 446.96L505.367 446.833L505.364 446.813L505.36 446.793L504.538 446.96ZM503.03 454.202L503.737 454.652L503.03 454.202ZM496.505 457.308C494.132 457.855 491.965 457.408 489.945 455.938L488.959 457.294C491.363 459.043 494.025 459.6 496.882 458.941L496.505 457.308ZM489.902 455.909C487.895 454.632 486.723 452.832 486.357 450.454L484.701 450.708C485.139 453.56 486.583 455.784 489.002 457.323L489.902 455.909ZM486.355 450.438C484.541 439.961 481.924 426.973 478.502 411.476L476.865 411.838C480.283 427.32 482.896 440.281 484.703 450.724L486.355 450.438ZM478.503 411.478C475.083 395.786 471.361 378.988 467.337 361.083L465.702 361.451C469.725 379.352 473.446 396.147 476.865 411.835L478.503 411.478ZM467.337 361.083C463.313 343.175 459.188 325.569 454.963 308.264L453.334 308.662C457.557 325.956 461.68 343.552 465.702 361.451L467.337 361.083ZM454.009 307.636C438.518 310.252 423.329 312.867 408.441 315.483L408.731 317.134C423.615 314.519 438.8 311.904 454.288 309.289L454.009 307.636ZM408.439 315.483C393.757 318.098 380.986 320.31 370.128 322.12L370.403 323.773C381.27 321.962 394.046 319.749 408.733 317.133L408.439 315.483ZM370.138 322.118C367.75 322.485 365.557 321.942 363.517 320.458L362.531 321.814C364.916 323.548 367.551 324.212 370.393 323.775L370.138 322.118ZM363.547 320.481C361.705 319.007 360.603 317.086 360.231 314.672L358.574 314.927C359.008 317.743 360.32 320.046 362.5 321.79L363.547 320.481ZM360.239 314.735C360.051 312.299 360.611 310.181 361.9 308.34L360.527 307.379C358.999 309.561 358.352 312.069 358.567 314.864L360.239 314.735ZM361.891 308.352C363.374 306.313 365.291 305.132 367.677 304.765L367.422 303.108C364.578 303.546 362.271 304.98 360.535 307.366L361.891 308.352ZM367.67 304.766C378.737 303.157 391.413 301.245 405.697 299.032L405.44 297.376C391.16 299.588 378.49 301.499 367.429 303.107L367.67 304.766ZM405.706 299.031C420.192 296.616 434.979 294.102 450.067 291.486L449.781 289.835C434.696 292.449 419.912 294.964 405.431 297.377L405.706 299.031ZM450.736 290.454C447.719 278.584 444.902 267.62 442.287 257.56L440.664 257.982C443.279 268.038 446.095 279 449.112 290.867L450.736 290.454ZM442.288 257.564C439.671 247.298 437.254 238.436 435.037 230.979L433.43 231.457C435.639 238.886 438.05 247.726 440.663 257.978L442.288 257.564ZM435.035 230.972C434.29 228.552 434.484 226.374 435.573 224.378L434.101 223.575C432.776 226.004 432.568 228.654 433.433 231.465L435.035 230.972ZM435.561 224.399C436.866 222.162 438.709 220.691 441.118 219.95L440.625 218.348C437.805 219.216 435.625 220.963 434.113 223.554L435.561 224.399ZM441.118 219.95C443.51 219.214 445.668 219.491 447.664 220.761L448.564 219.347C446.134 217.8 443.464 217.474 440.625 218.348L441.118 219.95ZM447.739 220.804C449.93 221.899 451.276 223.606 451.823 225.975L453.456 225.598C452.796 222.738 451.124 220.622 448.488 219.304L447.739 220.804ZM451.831 226.009C456.253 242.087 461.38 262.594 467.212 287.532L468.844 287.15C463.009 262.201 457.877 241.672 453.448 225.565L451.831 226.009ZM468.164 288.168C481.646 285.955 494.524 283.742 506.799 281.528L506.502 279.878C494.236 282.09 481.366 284.302 467.892 286.514L468.164 288.168ZM506.799 281.528C519.073 279.315 529.839 277.302 539.097 275.491L538.775 273.846C529.527 275.655 518.77 277.666 506.502 279.878L506.799 281.528ZM539.094 275.492C556.949 272.081 570.096 272.628 578.693 276.927L579.442 275.427C570.337 270.875 556.73 270.416 538.779 273.845L539.094 275.492ZM578.693 276.927C587.271 281.216 592.876 289.021 595.449 300.499L597.084 300.133C594.427 288.276 588.566 279.989 579.442 275.427L578.693 276.927ZM595.451 300.511C598.598 313.689 595.182 326.298 585.063 338.401L586.349 339.476C596.748 327.038 600.372 313.899 597.082 300.121L595.451 300.511ZM585.057 338.407C575.144 350.501 557.112 361.3 530.808 370.737L531.374 372.315C557.774 362.843 576.152 351.917 586.354 339.47L585.057 338.407ZM530.845 370.725C528.407 371.475 526.095 371.377 523.87 370.451L523.225 371.998C525.829 373.083 528.545 373.186 531.338 372.327L530.845 370.725ZM523.949 370.488C521.911 369.376 520.429 367.715 519.494 365.471L517.946 366.115C519.023 368.698 520.76 370.658 523.146 371.96L523.949 370.488ZM519.521 365.546C518.771 363.109 518.869 360.796 519.795 358.572L518.248 357.927C517.163 360.531 517.06 363.247 517.919 366.039L519.521 365.546ZM519.771 358.624C520.874 356.419 522.602 354.961 525.001 354.223L524.508 352.621C521.678 353.492 519.583 355.253 518.272 357.875L519.771 358.624ZM525.008 354.221C541.534 348.981 553.713 343.414 561.472 337.492L560.455 336.16C552.926 341.906 540.966 347.402 524.501 352.623L525.008 354.221ZM561.474 337.491C569.372 331.415 574.447 325.461 576.538 319.607L574.959 319.044C573.026 324.455 568.245 330.167 560.452 336.162L561.474 337.491ZM576.538 319.607C578.587 313.868 579.031 308.754 577.761 304.31L576.149 304.771C577.294 308.775 576.933 313.518 574.959 319.044L576.538 319.607ZM577.77 304.344C576.313 298.309 573.152 294.141 568.237 292.004L567.569 293.541C571.907 295.428 574.781 299.104 576.141 304.737L577.77 304.344ZM568.237 292.004C565.771 290.931 562.369 290.426 558.097 290.426C553.811 290.426 548.583 290.935 542.422 291.945L542.693 293.6C548.802 292.598 553.934 292.102 558.097 292.102C562.273 292.102 565.409 292.602 567.569 293.541L568.237 292.004ZM542.416 291.946C534.166 293.355 523.805 295.166 511.332 297.379L511.625 299.029C524.096 296.817 534.453 295.006 542.698 293.599L542.416 291.946ZM511.33 297.379C499.06 299.592 486.086 301.905 472.409 304.318L472.7 305.969C486.38 303.555 499.355 301.242 511.627 299.029L511.33 297.379ZM471.738 305.336C475.761 322.432 479.784 339.83 483.806 357.53L485.441 357.159C481.417 339.455 477.394 322.052 473.37 304.952L471.738 305.336ZM483.806 357.53C487.829 375.23 491.55 391.924 494.969 407.611L496.607 407.254C493.187 391.561 489.465 374.863 485.441 357.159L483.806 357.53ZM494.972 407.623C498.592 423.108 501.507 436.275 503.717 447.128L505.36 446.793C503.145 435.92 500.226 422.736 496.604 407.242L494.972 407.623ZM503.71 447.088C504.082 449.504 503.621 451.712 502.323 453.752L503.737 454.652C505.255 452.266 505.8 449.647 505.367 446.833L503.71 447.088ZM502.323 453.752C501.058 455.739 499.172 456.924 496.575 457.295L496.812 458.954C499.847 458.521 502.185 457.09 503.737 454.652L502.323 453.752Z" fill="url(#paint3_linear_58_186)" mask="url(#path-4-outside-2_58_186)"/>
<mask id="path-6-outside-3_58_186" maskUnits="userSpaceOnUse" x="568.422" y="299.687" width="248" height="156" fill="black">
<rect fill="white" x="568.422" y="299.687" width="248" height="156"/>
<path d="M620.506 448.502C619.031 448.625 617.74 448.256 616.634 447.396C615.527 446.535 614.851 445.367 614.605 443.892C614.482 442.54 614.851 441.249 615.712 440.02C616.572 438.791 617.679 438.115 619.031 437.992C631.816 436.394 642.019 433.566 649.64 429.509C657.262 425.33 662.548 420.474 665.498 414.942C668.572 409.287 669.678 403.571 668.818 397.794C667.711 389.926 664.638 384.148 659.598 380.46C654.558 376.65 647.858 375.052 639.499 375.666C635.319 376.035 630.525 376.65 625.116 377.51C619.83 378.248 614.36 379.17 608.705 380.276C603.05 381.259 597.58 382.366 592.294 383.595C587.131 384.702 582.644 385.808 578.833 386.914C577.481 387.283 576.128 387.099 574.776 386.361C573.547 385.623 572.748 384.579 572.379 383.226C571.887 381.874 572.01 380.583 572.748 379.354C573.485 378.002 574.592 377.141 576.067 376.773C580.124 375.666 584.856 374.56 590.265 373.453C595.674 372.224 601.268 371.056 607.045 369.95C612.946 368.844 618.601 367.922 624.01 367.184C629.541 366.446 634.459 365.893 638.761 365.524C649.825 364.664 658.922 367 666.052 372.531C673.182 377.94 677.546 385.869 679.144 396.318C680.373 404.555 678.959 412.299 674.903 419.552C670.969 426.682 664.454 432.829 655.357 437.992C646.26 443.032 634.643 446.535 620.506 448.502ZM807.114 449.977C777.733 453.788 754.868 452.559 738.519 446.289C722.292 440.02 714.179 428.465 714.179 411.623C714.179 401.543 716.883 392.815 722.292 385.439C727.824 378.063 735.691 371.671 745.895 366.262C745.403 364.049 744.604 360.546 743.497 355.752C742.391 350.957 741.162 345.733 739.81 340.078C738.457 334.423 737.105 328.953 735.753 323.667C734.401 318.381 733.233 314.14 732.249 310.944C731.758 309.468 731.881 308.055 732.618 306.702C733.479 305.227 734.708 304.244 736.306 303.752C737.781 303.26 739.195 303.445 740.547 304.305C742.022 305.043 743.006 306.149 743.497 307.624C745.956 315.492 748.292 324.22 750.504 333.809C752.84 343.397 754.746 352.555 756.221 361.283C762.49 358.579 769.374 356.059 776.873 353.723C784.495 351.387 792.608 349.236 801.213 347.269C802.811 346.901 804.286 347.146 805.639 348.007C806.991 348.867 807.851 350.097 808.22 351.695C808.589 353.293 808.343 354.83 807.482 356.305C806.622 357.657 805.393 358.456 803.795 358.702C784.003 363.004 768.391 367.799 756.958 373.085C745.649 378.248 737.597 384.025 732.803 390.418C728.131 396.81 725.796 403.94 725.796 411.808C725.796 424.223 732.618 432.644 746.263 437.07C759.909 441.372 779.7 441.802 805.639 438.36C807.36 438.115 808.835 438.483 810.064 439.467C811.416 440.45 812.154 441.741 812.277 443.339C812.523 444.937 812.154 446.412 811.17 447.765C810.187 448.994 808.835 449.731 807.114 449.977Z"/>
</mask>
<path d="M620.506 448.502C619.031 448.625 617.74 448.256 616.634 447.396C615.527 446.535 614.851 445.367 614.605 443.892C614.482 442.54 614.851 441.249 615.712 440.02C616.572 438.791 617.679 438.115 619.031 437.992C631.816 436.394 642.019 433.566 649.64 429.509C657.262 425.33 662.548 420.474 665.498 414.942C668.572 409.287 669.678 403.571 668.818 397.794C667.711 389.926 664.638 384.148 659.598 380.46C654.558 376.65 647.858 375.052 639.499 375.666C635.319 376.035 630.525 376.65 625.116 377.51C619.83 378.248 614.36 379.17 608.705 380.276C603.05 381.259 597.58 382.366 592.294 383.595C587.131 384.702 582.644 385.808 578.833 386.914C577.481 387.283 576.128 387.099 574.776 386.361C573.547 385.623 572.748 384.579 572.379 383.226C571.887 381.874 572.01 380.583 572.748 379.354C573.485 378.002 574.592 377.141 576.067 376.773C580.124 375.666 584.856 374.56 590.265 373.453C595.674 372.224 601.268 371.056 607.045 369.95C612.946 368.844 618.601 367.922 624.01 367.184C629.541 366.446 634.459 365.893 638.761 365.524C649.825 364.664 658.922 367 666.052 372.531C673.182 377.94 677.546 385.869 679.144 396.318C680.373 404.555 678.959 412.299 674.903 419.552C670.969 426.682 664.454 432.829 655.357 437.992C646.26 443.032 634.643 446.535 620.506 448.502ZM807.114 449.977C777.733 453.788 754.868 452.559 738.519 446.289C722.292 440.02 714.179 428.465 714.179 411.623C714.179 401.543 716.883 392.815 722.292 385.439C727.824 378.063 735.691 371.671 745.895 366.262C745.403 364.049 744.604 360.546 743.497 355.752C742.391 350.957 741.162 345.733 739.81 340.078C738.457 334.423 737.105 328.953 735.753 323.667C734.401 318.381 733.233 314.14 732.249 310.944C731.758 309.468 731.881 308.055 732.618 306.702C733.479 305.227 734.708 304.244 736.306 303.752C737.781 303.26 739.195 303.445 740.547 304.305C742.022 305.043 743.006 306.149 743.497 307.624C745.956 315.492 748.292 324.22 750.504 333.809C752.84 343.397 754.746 352.555 756.221 361.283C762.49 358.579 769.374 356.059 776.873 353.723C784.495 351.387 792.608 349.236 801.213 347.269C802.811 346.901 804.286 347.146 805.639 348.007C806.991 348.867 807.851 350.097 808.22 351.695C808.589 353.293 808.343 354.83 807.482 356.305C806.622 357.657 805.393 358.456 803.795 358.702C784.003 363.004 768.391 367.799 756.958 373.085C745.649 378.248 737.597 384.025 732.803 390.418C728.131 396.81 725.796 403.94 725.796 411.808C725.796 424.223 732.618 432.644 746.263 437.07C759.909 441.372 779.7 441.802 805.639 438.36C807.36 438.115 808.835 438.483 810.064 439.467C811.416 440.45 812.154 441.741 812.277 443.339C812.523 444.937 812.154 446.412 811.17 447.765C810.187 448.994 808.835 449.731 807.114 449.977Z" fill="url(#paint4_linear_58_186)"/>
<path d="M620.506 448.502L620.784 451.843L620.877 451.836L620.968 451.823L620.506 448.502ZM614.605 443.892L611.267 444.196L611.278 444.32L611.298 444.443L614.605 443.892ZM619.031 437.992L619.334 441.33L619.391 441.325L619.447 441.318L619.031 437.992ZM649.64 429.509L651.216 432.469L651.234 432.459L651.253 432.449L649.64 429.509ZM665.498 414.942L662.553 413.341L662.546 413.353L662.54 413.365L665.498 414.942ZM668.818 397.794L665.498 398.26L665.499 398.274L665.501 398.287L668.818 397.794ZM659.598 380.46L657.576 383.135L657.597 383.151L657.618 383.166L659.598 380.46ZM639.499 375.666L639.253 372.323L639.228 372.324L639.204 372.326L639.499 375.666ZM625.116 377.51L625.579 380.831L625.611 380.826L625.643 380.821L625.116 377.51ZM608.705 380.276L609.279 383.579L609.314 383.573L609.349 383.566L608.705 380.276ZM592.294 383.595L592.996 386.873L593.025 386.867L593.053 386.861L592.294 383.595ZM578.833 386.914L579.715 390.149L579.741 390.142L579.768 390.134L578.833 386.914ZM574.776 386.361L573.051 389.236L573.11 389.271L573.171 389.304L574.776 386.361ZM572.379 383.226L575.613 382.344L575.577 382.211L575.53 382.081L572.379 383.226ZM572.748 379.354L575.623 381.079L575.658 381.02L575.691 380.959L572.748 379.354ZM576.067 376.773L576.88 380.025L576.915 380.016L576.949 380.007L576.067 376.773ZM590.265 373.453L590.937 376.738L590.973 376.731L591.008 376.723L590.265 373.453ZM607.045 369.95L606.427 366.655L606.415 366.657L607.045 369.95ZM624.01 367.184L623.566 363.861L623.557 363.862L624.01 367.184ZM638.761 365.524L638.501 362.182L638.488 362.183L638.475 362.184L638.761 365.524ZM666.052 372.531L663.996 375.18L664.011 375.191L664.025 375.202L666.052 372.531ZM679.144 396.318L682.46 395.823L682.458 395.812L679.144 396.318ZM674.903 419.552L671.977 417.916L671.972 417.924L671.967 417.933L674.903 419.552ZM655.357 437.992L656.982 440.924L656.997 440.916L657.012 440.907L655.357 437.992ZM620.228 445.161C619.539 445.218 619.095 445.062 618.692 444.749L614.575 450.042C616.386 451.45 618.522 452.032 620.784 451.843L620.228 445.161ZM618.692 444.749C618.297 444.442 618.03 444.047 617.912 443.341L611.298 444.443C611.673 446.688 612.757 448.628 614.575 450.042L618.692 444.749ZM617.944 443.589C617.901 443.11 618.001 442.596 618.458 441.943L612.965 438.097C611.702 439.902 611.064 441.97 611.267 444.196L617.944 443.589ZM618.458 441.943C618.82 441.426 619.076 441.354 619.334 441.33L618.727 434.653C616.281 434.875 614.325 436.155 612.965 438.097L618.458 441.943ZM619.447 441.318C632.457 439.692 643.102 436.788 651.216 432.469L648.065 426.55C640.936 430.344 631.175 433.095 618.615 434.665L619.447 441.318ZM651.253 432.449C659.233 428.073 665.102 422.809 668.457 416.52L662.54 413.365C659.994 418.139 655.292 422.587 648.028 426.57L651.253 432.449ZM668.444 416.543C671.828 410.318 673.112 403.871 672.134 397.3L665.501 398.287C666.244 403.271 665.316 408.257 662.553 413.341L668.444 416.543ZM672.137 397.327C670.941 388.82 667.534 382.113 661.578 377.755L657.618 383.166C661.741 386.183 664.481 391.032 665.498 398.26L672.137 397.327ZM661.62 377.786C655.743 373.343 648.155 371.668 639.253 372.323L639.745 379.01C647.561 378.435 653.372 379.956 657.576 383.135L661.62 377.786ZM639.204 372.326C634.928 372.704 630.053 373.33 624.589 374.199L625.643 380.821C630.996 379.969 635.711 379.366 639.793 379.006L639.204 372.326ZM624.653 374.19C619.302 374.936 613.771 375.869 608.061 376.986L609.349 383.566C614.948 382.471 620.358 381.559 625.579 380.831L624.653 374.19ZM608.13 376.973C602.417 377.967 596.885 379.085 591.534 380.33L593.053 386.861C598.274 385.646 603.683 384.552 609.279 383.579L608.13 376.973ZM591.591 380.317C586.374 381.435 581.806 382.56 577.898 383.695L579.768 390.134C583.481 389.056 587.887 387.968 592.996 386.873L591.591 380.317ZM577.951 383.68C577.52 383.797 577.056 383.785 576.382 383.418L573.171 389.304C575.201 390.412 577.441 390.769 579.715 390.149L577.951 383.68ZM576.501 383.486C575.994 383.182 575.749 382.841 575.613 382.344L569.144 384.108C569.746 386.316 571.099 388.065 573.051 389.236L576.501 383.486ZM575.53 382.081C575.382 381.674 575.407 381.438 575.623 381.079L569.873 377.629C568.613 379.729 568.393 382.074 569.228 384.372L575.53 382.081ZM575.691 380.959C575.987 380.418 576.327 380.163 576.88 380.025L575.254 373.52C572.856 374.119 570.984 375.586 569.805 377.749L575.691 380.959ZM576.949 380.007C580.919 378.924 585.578 377.834 590.937 376.738L589.593 370.169C584.134 371.285 579.329 372.408 575.185 373.538L576.949 380.007ZM591.008 376.723C596.378 375.502 601.933 374.342 607.676 373.243L606.415 366.657C600.602 367.77 594.971 368.946 589.522 370.184L591.008 376.723ZM607.663 373.245C613.514 372.148 619.114 371.235 624.463 370.506L623.557 363.862C618.087 364.608 612.377 365.539 606.427 366.655L607.663 373.245ZM624.453 370.507C629.947 369.775 634.81 369.228 639.047 368.865L638.475 362.184C634.107 362.558 629.136 363.118 623.566 363.861L624.453 370.507ZM639.021 368.867C649.454 368.056 657.668 370.27 663.996 375.18L668.107 369.883C660.175 363.729 650.196 361.272 638.501 362.182L639.021 368.867ZM664.025 375.202C670.337 379.991 674.338 387.07 675.83 396.825L682.458 395.812C680.753 384.668 676.026 375.89 668.078 369.86L664.025 375.202ZM675.828 396.813C676.948 404.317 675.67 411.312 671.977 417.916L677.829 421.189C682.248 413.287 683.798 404.792 682.46 395.823L675.828 396.813ZM671.967 417.933C668.406 424.386 662.411 430.133 653.702 435.076L657.012 440.907C666.496 435.524 673.531 428.978 677.838 421.172L671.967 417.933ZM653.732 435.059C645.102 439.84 633.915 443.252 620.044 445.181L620.968 451.823C635.371 449.819 647.417 446.223 656.982 440.924L653.732 435.059ZM807.114 449.977L807.545 453.302L807.566 453.299L807.588 453.296L807.114 449.977ZM738.519 446.289L737.31 449.417L737.318 449.42L738.519 446.289ZM722.292 385.439L719.61 383.428L719.599 383.442L719.588 383.456L722.292 385.439ZM745.895 366.262L747.465 369.224L749.721 368.028L749.167 365.535L745.895 366.262ZM743.497 355.752L740.231 356.505L743.497 355.752ZM735.753 323.667L739.001 322.836V322.836L735.753 323.667ZM732.249 310.944L735.454 309.958L735.442 309.92L735.43 309.883L732.249 310.944ZM732.618 306.702L729.722 305.013L729.698 305.055L729.675 305.097L732.618 306.702ZM736.306 303.752L737.292 306.957L737.329 306.945L737.366 306.933L736.306 303.752ZM740.547 304.305L738.747 307.134L738.893 307.227L739.048 307.304L740.547 304.305ZM743.497 307.624L746.697 306.624L746.688 306.594L746.678 306.564L743.497 307.624ZM750.504 333.809L747.238 334.562L747.242 334.582L747.247 334.602L750.504 333.809ZM756.221 361.283L752.915 361.842L753.627 366.054L757.549 364.362L756.221 361.283ZM776.873 353.723L775.891 350.518L775.883 350.52L775.876 350.522L776.873 353.723ZM801.213 347.269L801.96 350.538L801.967 350.536L801.213 347.269ZM805.639 348.007L803.839 350.835V350.835L805.639 348.007ZM808.22 351.695L804.953 352.449L804.953 352.449L808.22 351.695ZM807.482 356.305L810.311 358.105L810.346 358.05L810.378 357.994L807.482 356.305ZM803.795 358.702L803.285 355.388L803.183 355.404L803.082 355.426L803.795 358.702ZM756.958 373.085L758.351 376.134L758.358 376.131L758.365 376.128L756.958 373.085ZM732.803 390.418L730.12 388.406L730.108 388.423L730.096 388.44L732.803 390.418ZM746.263 437.07L745.229 440.259L745.242 440.263L745.255 440.267L746.263 437.07ZM805.639 438.36L806.08 441.684L806.096 441.682L806.113 441.679L805.639 438.36ZM810.064 439.467L807.97 442.085L808.03 442.133L808.092 442.178L810.064 439.467ZM812.277 443.339L808.934 443.596L808.944 443.723L808.963 443.849L812.277 443.339ZM811.17 447.765L813.788 449.859L813.836 449.799L813.882 449.736L811.17 447.765ZM806.682 446.653C777.519 450.435 755.306 449.136 739.719 443.159L737.318 449.42C754.431 455.982 777.948 457.141 807.545 453.302L806.682 446.653ZM739.727 443.162C732.088 440.211 726.602 436.114 723.008 430.994C719.419 425.883 717.531 419.49 717.531 411.623H710.826C710.826 420.597 712.995 428.403 717.52 434.847C722.039 441.283 728.722 446.099 737.311 449.417L739.727 443.162ZM717.531 411.623C717.531 402.179 720.052 394.164 724.996 387.422L719.588 383.456C713.715 391.466 710.826 400.906 710.826 411.623H717.531ZM724.974 387.451C730.145 380.556 737.591 374.459 747.465 369.224L744.324 363.3C733.792 368.883 725.503 375.57 719.61 383.428L724.974 387.451ZM749.167 365.535C748.673 363.308 747.871 359.793 746.764 354.998L740.231 356.505C741.337 361.299 742.133 364.791 742.622 366.989L749.167 365.535ZM746.764 354.998C745.656 350.193 744.424 344.96 743.07 339.298L736.549 340.858C737.899 346.505 739.127 351.721 740.231 356.505L746.764 354.998ZM743.07 339.298C741.714 333.627 740.358 328.14 739.001 322.836L732.505 324.498C733.852 329.766 735.2 335.219 736.549 340.858L743.07 339.298ZM739.001 322.836C737.643 317.526 736.46 313.227 735.454 309.958L729.045 311.93C730.006 315.053 731.159 319.236 732.505 324.498L739.001 322.836ZM735.43 309.883C735.229 309.282 735.274 308.834 735.561 308.308L729.675 305.097C728.487 307.275 728.286 309.655 729.069 312.004L735.43 309.883ZM735.514 308.392C735.961 307.626 736.517 307.195 737.292 306.957L735.32 300.548C732.899 301.293 730.997 302.828 729.722 305.013L735.514 308.392ZM737.366 306.933C737.85 306.771 738.216 306.796 738.747 307.134L742.347 301.477C740.173 300.094 737.712 299.749 735.246 300.572L737.366 306.933ZM739.048 307.304C739.781 307.671 740.125 308.108 740.317 308.685L746.678 306.564C745.887 304.19 744.263 302.415 742.046 301.307L739.048 307.304ZM740.297 308.624C742.726 316.397 745.041 325.041 747.238 334.562L753.771 333.055C751.543 323.399 749.186 314.587 746.697 306.624L740.297 308.624ZM747.247 334.602C749.566 344.122 751.455 353.201 752.915 361.842L759.526 360.725C758.037 351.909 756.114 342.673 753.762 333.015L747.247 334.602ZM757.549 364.362C763.695 361.71 770.467 359.23 777.87 356.924L775.876 350.522C768.281 352.888 761.285 355.448 754.893 358.205L757.549 364.362ZM777.855 356.929C785.392 354.619 793.426 352.488 801.96 350.538L800.466 344.001C791.79 345.984 783.598 348.156 775.891 350.518L777.855 356.929ZM801.967 350.536C802.712 350.364 803.264 350.47 803.839 350.835L807.438 345.178C805.309 343.823 802.91 343.437 800.459 344.003L801.967 350.536ZM803.839 350.835C804.43 351.211 804.777 351.686 804.953 352.449L811.487 350.941C810.925 348.508 809.552 346.523 807.438 345.178L803.839 350.835ZM804.953 352.449C805.121 353.178 805.036 353.844 804.587 354.615L810.378 357.994C811.649 355.815 812.056 353.408 811.487 350.941L804.953 352.449ZM804.654 354.505C804.317 355.034 803.938 355.288 803.285 355.388L804.304 362.015C806.848 361.624 808.927 360.28 810.311 358.105L804.654 354.505ZM803.082 355.426C783.177 359.753 767.299 364.61 755.551 370.042L758.365 376.128C769.483 370.987 784.829 366.256 804.507 361.978L803.082 355.426ZM755.566 370.035C744.004 375.313 735.388 381.383 730.12 388.406L735.485 392.429C739.806 386.667 747.294 381.182 758.351 376.134L755.566 370.035ZM730.096 388.44C725.008 395.402 722.443 403.224 722.443 411.808H729.148C729.148 404.656 731.255 398.218 735.509 392.396L730.096 388.44ZM722.443 411.808C722.443 418.666 724.343 424.653 728.308 429.546C732.24 434.399 737.985 437.909 745.229 440.259L747.298 433.881C740.896 431.804 736.408 428.892 733.517 425.324C730.659 421.797 729.148 417.365 729.148 411.808H722.443ZM745.255 440.267C759.611 444.794 779.993 445.146 806.08 441.684L805.197 435.037C779.408 438.459 760.207 437.951 747.272 433.872L745.255 440.267ZM806.113 441.679C807.023 441.549 807.543 441.743 807.97 442.085L812.158 436.849C810.127 435.224 807.696 434.68 805.164 435.041L806.113 441.679ZM808.092 442.178C808.689 442.612 808.89 443.025 808.934 443.596L815.619 443.082C815.418 440.457 814.143 438.288 812.036 436.755L808.092 442.178ZM808.963 443.849C809.069 444.54 808.942 445.129 808.459 445.793L813.882 449.736C815.366 447.696 815.976 445.334 815.59 442.829L808.963 443.849ZM808.552 445.67C808.159 446.162 807.612 446.519 806.64 446.658L807.588 453.296C810.057 452.943 812.215 451.826 813.788 449.859L808.552 445.67Z" fill="url(#paint5_linear_58_186)" mask="url(#path-6-outside-3_58_186)"/>
<defs>
<linearGradient id="paint0_linear_58_186" x1="477.751" y1="0" x2="477.751" y2="637.002" gradientUnits="userSpaceOnUse">
<stop stop-color="#5C59CE"/>
<stop offset="1" stop-color="#E0B0F0" stop-opacity="0.26"/>
</linearGradient>
<linearGradient id="paint1_linear_58_186" x1="268.58" y1="83.8179" x2="268.58" y2="568.818" gradientUnits="userSpaceOnUse">
<stop stop-color="#5D5ACF"/>
<stop offset="1" stop-color="#C07FDF" stop-opacity="0.63"/>
</linearGradient>
<linearGradient id="paint2_linear_58_186" x1="486.264" y1="100.581" x2="486.264" y2="537.581" gradientUnits="userSpaceOnUse">
<stop stop-color="#5D5ACF"/>
<stop offset="1" stop-color="#C07FDF" stop-opacity="0.63"/>
</linearGradient>
<linearGradient id="paint3_linear_58_186" x1="486.264" y1="100.581" x2="486.264" y2="537.581" gradientUnits="userSpaceOnUse">
<stop stop-color="#5D5ACF"/>
<stop offset="1" stop-color="#C07FDF" stop-opacity="0.63"/>
</linearGradient>
<linearGradient id="paint4_linear_58_186" x1="695.422" y1="234.687" x2="695.422" y2="501.687" gradientUnits="userSpaceOnUse">
<stop stop-color="#5D5ACF"/>
<stop offset="1" stop-color="#C07FDF" stop-opacity="0.63"/>
</linearGradient>
<linearGradient id="paint5_linear_58_186" x1="695.422" y1="234.687" x2="695.422" y2="501.687" gradientUnits="userSpaceOnUse">
<stop stop-color="#5D5ACF"/>
<stop offset="1" stop-color="#C07FDF" stop-opacity="0.63"/>
</linearGradient>
</defs>
</svg>
