<svg width="126" height="45" viewBox="0 0 126 45" fill="none" xmlns="http://www.w3.org/2000/svg">
<g opacity="0.5">
<rect width="126" height="45" rx="22.5" fill="url(#paint0_linear_59_266)"/>
<path d="M22.292 17.692C22.64 17.716 23.024 17.74 23.456 17.74C24.488 17.74 28.172 17.74 29.24 17.74C29.636 17.74 30.032 17.716 30.308 17.692V19.18C29.996 19.168 29.672 19.156 29.24 19.156C28.172 19.156 24.044 19.156 23.456 19.156C23.024 19.156 22.64 19.168 22.292 19.18V17.692ZM26.42 21.916C26.42 22.468 26.42 24.064 26.42 24.484C26.42 25.132 26.816 25.372 27.788 25.372C28.856 25.372 29.912 25.312 30.884 25.204L30.776 26.836C29.996 26.884 28.628 26.92 27.512 26.92C25.316 26.92 24.776 26.176 24.776 24.964C24.776 24.172 24.776 22.564 24.776 21.856C24.776 21.4 24.776 19.192 24.776 18.796H26.42C26.42 19.168 26.42 21.796 26.42 21.916ZM21.5 21.124C21.836 21.148 22.448 21.196 22.808 21.196C23.912 21.196 29.24 21.196 30.032 21.196C30.284 21.196 30.896 21.16 31.208 21.136V22.684C30.884 22.636 30.344 22.648 30.08 22.648C29.216 22.648 23.9 22.648 22.808 22.648C22.472 22.648 21.86 22.672 21.5 22.696V21.124ZM36.764 16.708C36.812 17.02 36.884 17.392 37.004 17.776C37.556 19.72 38.852 24.508 39.224 25.732C39.296 25.996 39.488 26.56 39.596 26.86L37.82 27.28C37.748 26.956 37.664 26.476 37.544 26.068C37.22 24.904 35.828 19.588 35.408 18.16C35.252 17.632 35.144 17.344 35.012 17.116L36.764 16.708ZM43.748 18.892C43.196 20.116 41.732 22.216 40.736 23.308L39.188 22.576C40.088 21.832 41.048 20.572 41.432 19.912C40.664 20.032 34.64 21.268 33.464 21.544L33.056 19.924C33.512 19.888 33.932 19.84 34.4 19.768C35.168 19.636 40.928 18.556 41.936 18.328C42.188 18.28 42.464 18.184 42.656 18.1L43.748 18.892ZM46.772 17.692C47.12 17.716 47.504 17.74 47.936 17.74C48.968 17.74 52.652 17.74 53.72 17.74C54.116 17.74 54.512 17.716 54.788 17.692V19.18C54.476 19.168 54.152 19.156 53.72 19.156C52.652 19.156 48.524 19.156 47.936 19.156C47.504 19.156 47.12 19.168 46.772 19.18V17.692ZM50.9 21.916C50.9 22.468 50.9 24.064 50.9 24.484C50.9 25.132 51.296 25.372 52.268 25.372C53.336 25.372 54.392 25.312 55.364 25.204L55.256 26.836C54.476 26.884 53.108 26.92 51.992 26.92C49.796 26.92 49.256 26.176 49.256 24.964C49.256 24.172 49.256 22.564 49.256 21.856C49.256 21.4 49.256 19.192 49.256 18.796H50.9C50.9 19.168 50.9 21.796 50.9 21.916ZM45.98 21.124C46.316 21.148 46.928 21.196 47.288 21.196C48.392 21.196 53.72 21.196 54.512 21.196C54.764 21.196 55.376 21.16 55.688 21.136V22.684C55.364 22.636 54.824 22.648 54.56 22.648C53.696 22.648 48.38 22.648 47.288 22.648C46.952 22.648 46.34 22.672 45.98 22.696V21.124ZM61.244 16.708C61.292 17.02 61.364 17.392 61.484 17.776C62.036 19.72 63.332 24.508 63.704 25.732C63.776 25.996 63.968 26.56 64.076 26.86L62.3 27.28C62.228 26.956 62.144 26.476 62.024 26.068C61.7 24.904 60.308 19.588 59.888 18.16C59.732 17.632 59.624 17.344 59.492 17.116L61.244 16.708ZM68.228 18.892C67.676 20.116 66.212 22.216 65.216 23.308L63.668 22.576C64.568 21.832 65.528 20.572 65.912 19.912C65.144 20.032 59.12 21.268 57.944 21.544L57.536 19.924C57.992 19.888 58.412 19.84 58.88 19.768C59.648 19.636 65.408 18.556 66.416 18.328C66.668 18.28 66.944 18.184 67.136 18.1L68.228 18.892ZM69.728 18.784H73.64V20.128H69.728V18.784ZM71.216 16.312H72.536V27.58H71.216V16.312ZM71.216 19.708L72.02 19.984C71.684 21.892 70.976 24.22 70.124 25.444C69.98 25.06 69.68 24.508 69.464 24.16C70.232 23.116 70.916 21.232 71.216 19.708ZM72.476 20.62C72.74 20.932 73.7 22.384 73.904 22.708L73.16 23.824C72.896 23.128 72.224 21.784 71.912 21.22L72.476 20.62ZM74.984 19.072H79.364V20.26H74.984V19.072ZM77.132 17.56C76.472 18.532 75.236 19.6 73.988 20.236C73.844 19.864 73.544 19.336 73.316 19.024C74.6 18.472 75.812 17.332 76.436 16.324H77.732C78.572 17.476 79.808 18.484 81.068 18.964C80.792 19.312 80.516 19.828 80.324 20.224C79.148 19.648 77.828 18.556 77.132 17.56ZM75.296 22.12V23.248H79.04V22.12H75.296ZM74.048 21.028H80.336V24.364H74.048V21.028ZM76.484 19.828H77.78V22.888C77.78 24.664 77.216 26.62 74.024 27.652C73.904 27.352 73.496 26.8 73.256 26.572C76.172 25.672 76.484 24.268 76.484 22.852V19.828ZM77.864 23.644C78.62 25.444 79.616 26.02 80.984 26.44C80.66 26.74 80.3 27.208 80.156 27.628C78.596 27.028 77.468 26.188 76.652 23.896L77.864 23.644ZM86.684 24.304H88.112V27.58H86.684V24.304ZM86.672 16.312H88.1V19.768H86.672V16.312ZM86.348 19.984L87.656 20.596C86.936 21.244 86.108 21.892 85.448 22.312L84.44 21.772C85.076 21.304 85.892 20.548 86.348 19.984ZM88.952 20.752L90.236 21.448C88.748 22.564 86.804 23.776 85.28 24.544L84.332 23.884C85.868 23.092 87.788 21.784 88.952 20.752ZM83.384 22L84.32 21.196C85.184 21.616 86.336 22.288 86.924 22.792L85.916 23.692C85.388 23.188 84.272 22.468 83.384 22ZM89.012 22.948L89.96 22.216C90.908 22.816 92.18 23.716 92.816 24.34L91.808 25.168C91.22 24.556 89.984 23.584 89.012 22.948ZM88.796 25.54L89.9 24.82C90.836 25.312 92.156 26.092 92.852 26.644L91.664 27.46C91.064 26.908 89.78 26.092 88.796 25.54ZM82.172 23.596C84.416 23.608 88.076 23.572 91.508 23.524L91.436 24.616C88.136 24.736 84.596 24.844 82.244 24.892L82.172 23.596ZM84.62 24.856L85.988 25.372C85.208 26.188 83.984 27.016 82.964 27.496C82.712 27.22 82.184 26.728 81.86 26.488C82.892 26.116 83.984 25.492 84.62 24.856ZM82.304 17.248H92.54V18.484H82.304V17.248ZM82.208 19.216H92.684V21.712H91.268V20.428H83.564V21.712H82.208V19.216ZM94.124 22.936C94.484 22.648 94.772 22.372 95.132 22C95.696 21.424 96.608 20.188 97.364 19.324C98.204 18.364 98.972 18.28 99.848 19.132C100.676 19.924 101.624 21.16 102.332 21.94C103.1 22.78 104.132 23.848 105.272 24.868L104.024 26.308C103.172 25.492 102.152 24.34 101.384 23.44C100.64 22.564 99.74 21.412 99.188 20.776C98.756 20.32 98.528 20.38 98.18 20.812C97.7 21.424 96.86 22.612 96.344 23.296C96.068 23.68 95.792 24.112 95.576 24.424L94.124 22.936Z" fill="black"/>
</g>
<defs>
<linearGradient id="paint0_linear_59_266" x1="63" y1="0" x2="63" y2="45" gradientUnits="userSpaceOnUse">
<stop stop-color="#5D5ACF"/>
<stop offset="0.0001" stop-color="#ABABAB" stop-opacity="0.99852"/>
<stop offset="1" stop-color="#C07FDF"/>
</linearGradient>
</defs>
</svg>
