<svg width="126" height="45" viewBox="0 0 126 45" fill="none" xmlns="http://www.w3.org/2000/svg">
<g opacity="0.5">
<rect width="126" height="45" rx="22.5" fill="url(#paint0_linear_82_46)"/>
<path d="M31.468 22.524C32.704 24.888 35.32 26.268 39.184 26.7C38.86 27.036 38.464 27.696 38.26 28.104C34.216 27.528 31.672 25.92 30.112 22.992L31.468 22.524ZM28.936 21.216H36.628V22.62H28.936V21.216ZM28.348 18.396H38.632V19.824H28.348V18.396ZM32.728 16.812H34.228V21.852H32.728V16.812ZM36.16 21.216H36.472L36.724 21.168L37.732 21.744C36.292 25.632 32.8 27.384 28.636 28.08C28.504 27.696 28.132 27.012 27.856 26.688C31.888 26.16 35.068 24.744 36.16 21.48V21.216ZM44.248 20.1H50.872V21.228H44.248V20.1ZM43.996 21.78H51.244V22.944H43.996V21.78ZM45.556 23.424H49.612V24.468H45.556V23.424ZM44.536 18.804L45.628 18.504C45.82 18.936 46.06 19.536 46.168 19.896L45.016 20.256C44.932 19.884 44.716 19.26 44.536 18.804ZM46.624 18.588L47.752 18.396C47.884 18.864 48.016 19.488 48.076 19.86L46.888 20.112C46.852 19.728 46.744 19.08 46.624 18.588ZM50.092 16.872L50.896 17.928C49.072 18.3 46.48 18.48 44.32 18.504C44.296 18.192 44.14 17.724 44.008 17.436C46.132 17.376 48.592 17.184 50.092 16.872ZM46.744 24.228C47.56 25.632 49.276 26.568 51.52 26.916C51.232 27.204 50.86 27.744 50.68 28.104C48.292 27.6 46.6 26.412 45.592 24.564L46.744 24.228ZM49.396 18.168L50.728 18.552C50.284 19.284 49.78 20.064 49.384 20.58L48.388 20.22C48.748 19.656 49.18 18.792 49.396 18.168ZM49.324 23.424H49.588L49.816 23.388L50.596 23.7C49.888 26.28 48.136 27.528 45.856 28.104C45.712 27.804 45.328 27.276 45.076 27.036C47.224 26.604 48.772 25.62 49.324 23.616V23.424ZM45.688 20.808H47.068C46.876 23.364 46.492 26.352 43.888 28.056C43.696 27.72 43.3 27.264 42.964 27.024C45.328 25.572 45.532 22.908 45.688 20.808ZM40.048 23.232C41.008 23.016 42.424 22.632 43.792 22.26L43.972 23.556C42.7 23.94 41.344 24.324 40.252 24.636L40.048 23.232ZM40.192 19.092H43.864V20.412H40.192V19.092ZM41.464 16.824H42.784V26.556C42.784 27.228 42.664 27.6 42.292 27.816C41.932 28.044 41.416 28.092 40.636 28.092C40.6 27.732 40.432 27.144 40.264 26.748C40.696 26.772 41.116 26.772 41.26 26.76C41.404 26.76 41.464 26.724 41.464 26.556V16.824ZM58.768 22.836H60.22V26.088C60.22 26.484 60.28 26.532 60.652 26.532C60.82 26.532 61.492 26.532 61.696 26.532C62.056 26.532 62.116 26.316 62.164 24.9C62.464 25.128 63.088 25.368 63.484 25.464C63.34 27.384 62.956 27.9 61.828 27.9C61.552 27.9 60.7 27.9 60.436 27.9C59.08 27.9 58.768 27.444 58.768 26.088V22.836ZM52.648 21.768H63.364V23.16H52.648V21.768ZM54.628 18.432H62.416V19.812H54.628V18.432ZM55.54 22.86H57.052C56.824 25.128 56.26 27.048 53.368 28.14C53.2 27.756 52.792 27.168 52.456 26.88C55.024 26.052 55.36 24.564 55.54 22.86ZM54.616 16.98L56.08 17.268C55.696 18.684 55.084 20.412 54.28 21.468C53.944 21.252 53.356 20.952 52.996 20.82C53.788 19.836 54.352 18.216 54.616 16.98ZM57.28 16.812H58.744V22.2H57.28V16.812ZM70.516 26.28H74.656V27.552H70.516V26.28ZM69.844 22.968H75.352V28.02H73.96V24.24H71.164V28.068H69.844V22.968ZM69.424 17.376H74.92V18.696H69.424V17.376ZM74.248 17.376H75.592C75.592 17.376 75.58 17.724 75.568 17.892C75.508 20.4 75.424 21.444 75.124 21.828C74.872 22.14 74.608 22.236 74.224 22.284C73.9 22.332 73.348 22.332 72.76 22.332C72.724 21.912 72.568 21.36 72.34 21C72.844 21.048 73.336 21.048 73.564 21.048C73.732 21.048 73.852 21.024 73.948 20.916C74.128 20.712 74.2 19.848 74.248 17.58V17.376ZM71.14 17.916H72.556C72.376 19.944 71.908 21.636 69.784 22.644C69.616 22.308 69.232 21.804 68.932 21.564C70.732 20.784 71.008 19.464 71.14 17.916ZM66.4 16.824L67.648 17.292C67.156 18.204 66.604 19.272 66.136 19.944L65.176 19.524C65.608 18.816 66.124 17.664 66.4 16.824ZM67.78 18.24L68.944 18.768C68.08 20.148 66.904 21.816 65.992 22.86L65.164 22.392C66.052 21.3 67.156 19.536 67.78 18.24ZM64.552 19.668L65.236 18.684C65.872 19.236 66.616 19.992 66.928 20.544L66.184 21.66C65.896 21.084 65.164 20.244 64.552 19.668ZM67.42 21.108L68.368 20.712C68.836 21.516 69.292 22.572 69.436 23.268L68.416 23.724C68.284 23.028 67.876 21.936 67.42 21.108ZM64.54 22.104C65.644 22.068 67.264 22.008 68.848 21.936L68.836 23.076C67.36 23.184 65.824 23.28 64.66 23.364L64.54 22.104ZM67.684 24.096L68.692 23.772C68.992 24.456 69.304 25.356 69.436 25.956L68.38 26.328C68.26 25.728 67.948 24.804 67.684 24.096ZM65.056 23.868L66.244 24.072C66.124 25.224 65.86 26.424 65.512 27.192C65.26 27.036 64.72 26.784 64.42 26.664C64.768 25.956 64.96 24.888 65.056 23.868ZM66.4 22.74H67.66V28.092H66.4V22.74ZM82.432 18.252C81.496 19.788 79.66 21.444 77.644 22.512C77.464 22.152 77.056 21.612 76.744 21.312C78.88 20.292 80.752 18.372 81.58 16.776H83.14C84.376 18.804 86.284 20.388 88.252 21.144C87.88 21.528 87.556 22.02 87.292 22.464C85.372 21.492 83.404 19.812 82.432 18.252ZM83.764 21.204H85.264V28.08H83.764V21.204ZM79.624 21.264H81.1V22.752C81.1 24.456 80.86 26.604 78.496 28.08C78.244 27.768 77.68 27.288 77.296 27.06C79.408 25.8 79.624 24.108 79.624 22.716V21.264ZM89.164 23.436C89.524 23.148 89.812 22.872 90.172 22.5C90.736 21.924 91.648 20.688 92.404 19.824C93.244 18.864 94.012 18.78 94.888 19.632C95.716 20.424 96.664 21.66 97.372 22.44C98.14 23.28 99.172 24.348 100.312 25.368L99.064 26.808C98.212 25.992 97.192 24.84 96.424 23.94C95.68 23.064 94.78 21.912 94.228 21.276C93.796 20.82 93.568 20.88 93.22 21.312C92.74 21.924 91.9 23.112 91.384 23.796C91.108 24.18 90.832 24.612 90.616 24.924L89.164 23.436Z" fill="black"/>
</g>
<defs>
<linearGradient id="paint0_linear_82_46" x1="63" y1="0" x2="63" y2="45" gradientUnits="userSpaceOnUse">
<stop stop-color="#5D5ACF"/>
<stop offset="0.0001" stop-color="#ABABAB" stop-opacity="0.99852"/>
<stop offset="1" stop-color="#C07FDF"/>
</linearGradient>
</defs>
</svg>
