<svg width="126" height="45" viewBox="0 0 126 45" fill="none" xmlns="http://www.w3.org/2000/svg">
<g opacity="0.5">
<rect width="126" height="45" rx="22.5" fill="url(#paint0_linear_59_258)"/>
<path d="M22.292 17.692C22.64 17.716 23.024 17.74 23.456 17.74C24.488 17.74 28.172 17.74 29.24 17.74C29.636 17.74 30.032 17.716 30.308 17.692V19.18C29.996 19.168 29.672 19.156 29.24 19.156C28.172 19.156 24.044 19.156 23.456 19.156C23.024 19.156 22.64 19.168 22.292 19.18V17.692ZM26.42 21.916C26.42 22.468 26.42 24.064 26.42 24.484C26.42 25.132 26.816 25.372 27.788 25.372C28.856 25.372 29.912 25.312 30.884 25.204L30.776 26.836C29.996 26.884 28.628 26.92 27.512 26.92C25.316 26.92 24.776 26.176 24.776 24.964C24.776 24.172 24.776 22.564 24.776 21.856C24.776 21.4 24.776 19.192 24.776 18.796H26.42C26.42 19.168 26.42 21.796 26.42 21.916ZM21.5 21.124C21.836 21.148 22.448 21.196 22.808 21.196C23.912 21.196 29.24 21.196 30.032 21.196C30.284 21.196 30.896 21.16 31.208 21.136V22.684C30.884 22.636 30.344 22.648 30.08 22.648C29.216 22.648 23.9 22.648 22.808 22.648C22.472 22.648 21.86 22.672 21.5 22.696V21.124ZM36.764 16.708C36.812 17.02 36.884 17.392 37.004 17.776C37.556 19.72 38.852 24.508 39.224 25.732C39.296 25.996 39.488 26.56 39.596 26.86L37.82 27.28C37.748 26.956 37.664 26.476 37.544 26.068C37.22 24.904 35.828 19.588 35.408 18.16C35.252 17.632 35.144 17.344 35.012 17.116L36.764 16.708ZM43.748 18.892C43.196 20.116 41.732 22.216 40.736 23.308L39.188 22.576C40.088 21.832 41.048 20.572 41.432 19.912C40.664 20.032 34.64 21.268 33.464 21.544L33.056 19.924C33.512 19.888 33.932 19.84 34.4 19.768C35.168 19.636 40.928 18.556 41.936 18.328C42.188 18.28 42.464 18.184 42.656 18.1L43.748 18.892ZM46.772 17.692C47.12 17.716 47.504 17.74 47.936 17.74C48.968 17.74 52.652 17.74 53.72 17.74C54.116 17.74 54.512 17.716 54.788 17.692V19.18C54.476 19.168 54.152 19.156 53.72 19.156C52.652 19.156 48.524 19.156 47.936 19.156C47.504 19.156 47.12 19.168 46.772 19.18V17.692ZM50.9 21.916C50.9 22.468 50.9 24.064 50.9 24.484C50.9 25.132 51.296 25.372 52.268 25.372C53.336 25.372 54.392 25.312 55.364 25.204L55.256 26.836C54.476 26.884 53.108 26.92 51.992 26.92C49.796 26.92 49.256 26.176 49.256 24.964C49.256 24.172 49.256 22.564 49.256 21.856C49.256 21.4 49.256 19.192 49.256 18.796H50.9C50.9 19.168 50.9 21.796 50.9 21.916ZM45.98 21.124C46.316 21.148 46.928 21.196 47.288 21.196C48.392 21.196 53.72 21.196 54.512 21.196C54.764 21.196 55.376 21.16 55.688 21.136V22.684C55.364 22.636 54.824 22.648 54.56 22.648C53.696 22.648 48.38 22.648 47.288 22.648C46.952 22.648 46.34 22.672 45.98 22.696V21.124ZM61.244 16.708C61.292 17.02 61.364 17.392 61.484 17.776C62.036 19.72 63.332 24.508 63.704 25.732C63.776 25.996 63.968 26.56 64.076 26.86L62.3 27.28C62.228 26.956 62.144 26.476 62.024 26.068C61.7 24.904 60.308 19.588 59.888 18.16C59.732 17.632 59.624 17.344 59.492 17.116L61.244 16.708ZM68.228 18.892C67.676 20.116 66.212 22.216 65.216 23.308L63.668 22.576C64.568 21.832 65.528 20.572 65.912 19.912C65.144 20.032 59.12 21.268 57.944 21.544L57.536 19.924C57.992 19.888 58.412 19.84 58.88 19.768C59.648 19.636 65.408 18.556 66.416 18.328C66.668 18.28 66.944 18.184 67.136 18.1L68.228 18.892ZM74.78 16.756H76.124V18.016C76.124 19.18 75.812 20.584 74.384 21.46C74.216 21.184 73.7 20.608 73.436 20.416C74.624 19.72 74.78 18.784 74.78 17.98V16.756ZM75.452 16.756H78.356V18.088H75.452V16.756ZM77.672 16.756H79.04V19.372C79.04 19.696 79.076 19.732 79.22 19.732C79.28 19.732 79.496 19.732 79.568 19.732C79.736 19.732 79.772 19.564 79.796 18.52C80.06 18.736 80.624 18.94 80.984 19.036C80.864 20.512 80.54 20.92 79.724 20.92C79.508 20.92 79.148 20.92 78.956 20.92C77.96 20.92 77.672 20.572 77.672 19.384V16.756ZM74.132 21.46H79.124V22.756H74.132V21.46ZM78.68 21.46H78.956L79.22 21.412L80.156 21.772C79.232 25.12 76.904 26.8 73.784 27.592C73.64 27.208 73.304 26.596 73.04 26.284C75.848 25.732 77.972 24.232 78.68 21.676V21.46ZM75.728 22.672C76.604 24.496 78.428 25.768 80.996 26.272C80.684 26.572 80.264 27.184 80.06 27.568C77.324 26.92 75.524 25.384 74.432 23.068L75.728 22.672ZM69.452 22.48C70.472 22.276 72.056 21.88 73.58 21.508L73.736 22.756C72.392 23.188 70.988 23.644 69.86 23.98L69.452 22.48ZM69.644 18.544H73.784V19.876H69.644V18.544ZM71.168 16.312H72.584V26.032C72.584 26.728 72.452 27.088 72.044 27.304C71.648 27.52 71.072 27.568 70.22 27.556C70.172 27.196 69.992 26.608 69.824 26.248C70.28 26.26 70.784 26.26 70.94 26.26C71.096 26.248 71.168 26.2 71.168 26.032V16.312ZM88.832 16.312H90.224V18.028H88.832V16.312ZM86.156 17.464H92.828V18.58H86.156V17.464ZM88.292 19.996V20.716H90.8V19.996H88.292ZM87.08 19.024H92.084V21.688H87.08V19.024ZM86.24 22.12H92.024V23.236H87.524V27.592H86.24V22.12ZM91.532 22.12H92.84V26.344C92.84 26.884 92.744 27.196 92.408 27.388C92.06 27.568 91.604 27.58 90.98 27.58C90.944 27.244 90.788 26.776 90.644 26.464C90.956 26.476 91.28 26.476 91.388 26.476C91.496 26.464 91.532 26.44 91.532 26.32V22.12ZM88.028 23.716H89.012V26.848H88.028V23.716ZM88.772 23.716H91.004V26.284H88.772V25.42H90.008V24.592H88.772V23.716ZM83.456 17.416H84.836V27.58H83.456V17.416ZM81.872 19.708H86.144V21.028H81.872V19.708ZM83.552 20.236L84.392 20.596C83.984 22.288 83.216 24.46 82.352 25.648C82.232 25.24 81.908 24.628 81.692 24.268C82.448 23.296 83.216 21.544 83.552 20.236ZM85.304 16.48L86.312 17.56C85.124 18.004 83.552 18.292 82.208 18.448C82.148 18.148 81.968 17.656 81.812 17.356C83.06 17.164 84.452 16.852 85.304 16.48ZM84.788 21.148C85.088 21.412 86.084 22.552 86.3 22.852L85.472 23.968C85.208 23.356 84.512 22.228 84.164 21.7L84.788 21.148ZM94.124 22.936C94.484 22.648 94.772 22.372 95.132 22C95.696 21.424 96.608 20.188 97.364 19.324C98.204 18.364 98.972 18.28 99.848 19.132C100.676 19.924 101.624 21.16 102.332 21.94C103.1 22.78 104.132 23.848 105.272 24.868L104.024 26.308C103.172 25.492 102.152 24.34 101.384 23.44C100.64 22.564 99.74 21.412 99.188 20.776C98.756 20.32 98.528 20.38 98.18 20.812C97.7 21.424 96.86 22.612 96.344 23.296C96.068 23.68 95.792 24.112 95.576 24.424L94.124 22.936Z" fill="black"/>
</g>
<defs>
<linearGradient id="paint0_linear_59_258" x1="63" y1="0" x2="63" y2="45" gradientUnits="userSpaceOnUse">
<stop stop-color="#A35ACF"/>
<stop offset="0.0001" stop-color="#ABABAB" stop-opacity="0.99852"/>
<stop offset="1" stop-color="#C07FDF"/>
</linearGradient>
</defs>
</svg>
